# xmcd
#
# Track frame offsets:
#	150
#	21360
#	46092
#	73775
#	101880
#	126202
#	154657
#	176415
#	199967
#	221725
#	248842
#	270755
#
# Disc length: 4025 seconds
#
# Revision: 4160092092
# Processed by: cddbd v1.5.2PL0 Copyright (c) Steve Scherf et al.
# Submitted via: EZCDAudioConverter 8.0.2.1
#
DISCID=a90fb70c
DTITLE=Duy Quang - Thương Tình Ca
DYEAR=1990
DGENRE=Miscellaneous
TTITLE0=Ta yêu em lầm lỡ
TTITLE1=Thương Tình Ca
TTITLE2=Con đường tình ta đi
TTITLE3=Ngày đó chúng mình
TTITLE4=Màu kỷ niệm
TTITLE5=Dưới dàn hoa cũ
TTITLE6=Chuyện tình buồn
TTITLE7=Từ giọng hát em
TTITLE8=Trả lại em yêu
TTITLE9=Chỉ chừng đó thôi
TTITLE10=Tuổi xa người
TTITLE11=Đừng xa nhau
EXTD=
EXTT0=
EXTT1=
EXTT2=
EXTT3=
EXTT4=
EXTT5=
EXTT6=
EXTT7=
EXTT8=
EXTT9=
EXTT10=
EXTT11=
PLAYORDER=
